<svg width="1200" height="800" viewBox="0 0 1200 800" fill="none" xmlns="http://www.w3.org/2000/svg">
  <rect width="1200" height="800" fill="#0C0C0C"/>
  <rect x="120" y="90" width="960" height="620" rx="24" fill="#111111" stroke="#2A2A2A"/>
  <rect x="120" y="90" width="960" height="84" rx="24" fill="#141414"/>
  <rect x="160" y="120" width="170" height="22" rx="8" fill="#2E2E2E"/>
  <rect x="870" y="120" width="90" height="22" rx="8" fill="#242424"/>
  <rect x="970" y="120" width="90" height="22" rx="8" fill="#242424"/>
  <rect x="160" y="210" width="190" height="450" rx="14" fill="#1A1A1A"/>
  <rect x="380" y="210" width="660" height="210" rx="14" fill="url(#grad1)" stroke="#1B4D5A"/>
  <path d="M380 370 C470 280 590 360 700 300 C790 250 900 320 1040 250" stroke="#35D7FF" stroke-opacity="0.4" stroke-width="4"/>
  <rect x="380" y="448" width="315" height="212" rx="14" fill="#1A1A1A"/>
  <rect x="725" y="448" width="315" height="212" rx="14" fill="#1A1A1A"/>
  <defs>
    <linearGradient id="grad1" x1="380" y1="210" x2="1040" y2="420" gradientUnits="userSpaceOnUse">
      <stop stop-color="#00E5FF" stop-opacity="0.18"/>
      <stop offset="1" stop-color="#3B82F6" stop-opacity="0.12"/>
    </linearGradient>
  </defs>
</svg>
